Coordinates
version=1
nRows=8
nColumns=63
inDegrees=yes

Units are S.I. units (second, meters, Newtons, ...)
If the header above contains a line with 'inDegrees', this indicates whether rotational values are in degrees (yes) or radians (no).

endheader
time	pelvis_tilt	pelvis_list	pelvis_rotation	pelvis_tx	pelvis_ty	pelvis_tz	hip_flexion_r	hip_adduction_r	hip_rotation_r	knee_angle_r	knee_angle_r_beta	ankle_angle_r	subtalar_angle_r	mtp_angle_r	hip_flexion_l	hip_adduction_l	hip_rotation_l	knee_angle_l	knee_angle_l_beta	ankle_angle_l	subtalar_angle_l	mtp_angle_l	L5_S1_Flex_Ext	L5_S1_Lat_Bending	L5_S1_axial_rotation	L4_L5_Flex_Ext	L4_L5_Lat_Bending	L4_L5_axial_rotation	L3_L4_Flex_Ext	L3_L4_Lat_Bending	L3_L4_axial_rotation	L2_L3_Flex_Ext	L2_L3_Lat_Bending	L2_L3_axial_rotation	L1_L2_Flex_Ext	L1_L2_Lat_Bending	L1_L2_axial_rotation	L1_T12_Flex_Ext	L1_T12_Lat_Bending	L1_T12_axial_rotation	Abs_r3	Abs_r2	Abs_r1	Abs_t1	Abs_t2	neck_flexion	neck_bending	neck_rotation	arm_flex_r	arm_add_r	arm_rot_r	elbow_flex_r	pro_sup_r	wrist_flex_r	wrist_dev_r	arm_flex_l	arm_add_l	arm_rot_l	elbow_flex_l	pro_sup_l	wrist_flex_l	wrist_dev_l
      1.43333333	     -1.16248865	     -0.01371820	     95.33827806	      0.17675678	      0.80725808	      0.77057328	     -0.27304007	     -4.50489518	      3.16397371	      4.75434589	      0.08297899	     24.54566782	     -0.88734456	      0.00000000	      3.10409979	      3.36805971	     -3.38538065	      9.36978846	      0.16353366	     30.12200593	      6.09560204	      0.00000000	      0.11652292	     -0.28316785	      1.71885427	      0.21639472	     -0.37661324	      1.82628266	      0.19143551	     -0.68849432	      1.82628266	      0.13317405	     -0.68849432	      1.50399749	      0.10820319	     -0.57743589	      1.39656909	      0.06658120	     -0.43862700	      1.28914070	      0.83231159	     -3.20325138	      9.55975179	      0.00000000	      0.00000000	     21.98093167	     -6.78313357	     -5.16707045	     19.92800809	     -2.45669591	     -0.45479019	    125.54534583	     88.43430615	    -18.54045740	     -0.23870902	     65.90513216	    -13.26530655	     21.78952359	    134.61012332	     82.53036851	      5.61173173	     12.60391026
      1.45000000	     -1.18431806	      0.00790775	     95.18515132	      0.17713389	      0.80698944	      0.77065088	     -0.27910540	     -4.52022018	      3.32073176	      4.73584297	      0.08265605	     24.58276316	     -0.86895764	      0.00000000	      3.08644790	      3.36125980	     -3.64513730	      9.41456146	      0.16431510	     30.38686790	      6.22822546	      0.00000000	      0.10620644	     -0.28307874	      1.46145904	      0.19723597	     -0.37649473	      1.55280023	      0.17448655	     -0.68827765	      1.55280023	      0.12138334	     -0.68827765	      1.27877666	      0.09862330	     -0.57725417	      1.18743547	      0.06068636	     -0.43848897	      1.09609428	      0.75862195	     -3.20224334	      8.12819674	      0.00000000	      0.00000000	     21.97694995	     -5.67653488	     -3.90474741	     24.29915169	     -1.08259244	      3.22953892	    122.21647202	     88.43359516	    -14.00271124	      2.66840715	     66.05822798	    -15.13215189	     21.35114761	    135.42226214	     83.73168091	      5.35554529	     15.11460589
      1.46666667	     -1.17738278	      0.07070334	     95.17481134	      0.17710735	      0.80668081	      0.77070254	     -0.34816215	     -4.51337955	      3.41887912	      4.73054372	      0.08256356	     24.63660522	     -0.88107775	      0.00000000	      3.04949748	      3.33395731	     -3.84564817	      9.51836646	      0.16612683	     30.61232758	      6.47185609	      0.00000000	      0.08447814	     -0.26580255	      1.22080182	      0.15688435	     -0.35351739	      1.29710193	      0.13878913	     -0.64627231	      1.29710193	      0.09655006	     -0.64627231	      1.06820159	      0.07844640	     -0.54202455	      0.99190148	      0.04827081	     -0.41172814	      0.91560136	      0.60341888	     -3.00681156	      6.78973347	      0.00000000	      0.00000000	     21.83756637	     -4.89890610	     -2.19213489	     27.83524728	     -0.13453242	      6.43155138	    119.23576793	     88.30111154	     -8.77475545	      5.35366813	     66.22496461	    -16.76425829	     20.50440939	    136.28163611	     84.68909702	      5.73723414	     16.69925845
      1.48333333	     -1.04210421	      0.08243883	     95.29842172	      0.17680095	      0.80627022	      0.77054487	     -0.40416422	     -4.36772357	      3.52255712	      4.69275819	      0.08190408	     24.64791789	     -1.11364340	      0.00000000	      3.13040296	      3.15400157	     -4.19887806	      9.78235604	      0.17073432	     30.93523324	      7.08660044	      0.00000000	      0.07529256	     -0.23550596	      1.05451660	      0.13982581	     -0.31322292	      1.12042389	      0.12369814	     -0.57260918	      1.12042389	      0.08605186	     -0.57260918	      0.92270203	      0.06991667	     -0.48024375	      0.85679474	      0.04302217	     -0.36479873	      0.79088745	      0.53780721	     -2.66409048	      5.86490499	      0.00000000	      0.00000000	     21.21663049	     -4.34445661	     -1.14493760	     29.69889517	     -0.02008046	      8.56592358	    117.94036698	     88.18101703	     -0.48709729	      8.85197623	     66.47159588	    -17.66578844	     19.43311211	    136.98095562	     85.29671946	      6.73912702	     18.02142755
      1.50000000	     -0.92553730	      0.18723866	     95.51149033	      0.17636865	      0.80609951	      0.77048095	     -0.53988979	     -4.22645181	      3.67378919	      4.69979013	      0.08202681	     24.58804853	     -1.57362212	      0.00000000	      3.12586745	      2.99263650	     -4.36072474	     10.07395888	      0.17582375	     31.19446355	      7.60294490	      0.00000000	      0.05147775	     -0.20266915	      0.90145050	      0.09559932	     -0.26954997	      0.95779116	      0.08457279	     -0.49276978	      0.95779116	      0.05883392	     -0.49276978	      0.78876919	      0.04780224	     -0.41328294	      0.73242853	      0.02941438	     -0.31393452	      0.67608788	      0.36770040	     -2.29263398	      5.01359726	      0.00000000	      0.00000000	     20.24815227	     -3.95485864	     -0.02326340	     30.08937864	     -0.65065134	     10.51370559	    118.57695281	     88.16155343	      9.58540723	     13.19188885	     66.78104924	    -18.35155804	     18.15753758	    137.50576467	     85.89577475	      7.67456852	     18.29324249
      1.51666667	     -0.63539664	      0.31565762	     95.90098292	      0.17539306	      0.80616048	      0.77059715	     -0.71011975	     -3.91849316	      3.62440757	      4.65150458	      0.08118407	     24.48254979	     -2.03696012	      0.00000000	      3.17631075	      2.67285124	     -4.32763397	     10.46280151	      0.18261034	     31.45199402	      8.03289185	      0.00000000	      0.03162018	     -0.14035187	      0.76062071	      0.05872184	     -0.18666799	      0.80815950	      0.05194880	     -0.34125154	      0.80815950	      0.03613870	     -0.34125154	      0.66554312	      0.02936250	     -0.28620554	      0.61800433	      0.01806777	     -0.21740505	      0.57046553	      0.22585979	     -1.58768844	      4.23034420	      0.00000000	      0.00000000	     19.04928789	     -4.07168941	      1.16501814	     29.37684015	     -1.88381379	     12.38848604	    121.17774375	     88.25207516	     19.94792782	     18.52534065	     66.91359279	    -18.60410996	     16.82365769	    137.94998388	     86.41752033	      8.18862056	     18.07431280
      1.53333333	     -0.61021628	      0.44154887	     96.29928551	      0.17498919	      0.80651011	      0.77055864	     -0.86789404	     -3.86316606	      3.45962541	      4.62223014	      0.08067313	     24.63321446	     -2.35731863	      0.00000000	      3.15992463	      2.59045422	     -4.39369825	     10.76258930	      0.18784262	     31.56837903	      8.59489295	      0.00000000	      0.01355242	     -0.14092088	      0.71380334	      0.02516819	     -0.18742477	      0.75841605	      0.02226526	     -0.34263503	      0.75841605	      0.01548906	     -0.34263503	      0.62457792	      0.01258477	     -0.28736586	      0.57996521	      0.00774385	     -0.21828644	      0.53535251	      0.09680355	     -1.59412517	      3.96996004	      0.00000000	      0.00000000	     17.77430899	     -3.53391911	      0.62593196	     27.44093717	     -2.88796411	     13.48110478	    125.31196584	     88.33402712	     28.24439872	     23.36540915	     67.50247843	    -18.32283593	     16.42222144	    137.85463275	     86.36915506	      8.73746101	     17.78733559
      1.55000000	     -0.66434109	      0.75558643	     96.34793946	      0.17503961	      0.80738093	      0.77080773	     -1.06571422	     -3.88555853	      3.49586987	      4.72530081	      0.08247206	     25.08123066	     -2.40367612	      0.00000000	      2.91155211	      2.59811423	     -4.53250256	     10.96632619	      0.19139850	     31.57655543	      8.56246464	      0.00000000	     -0.04267793	     -0.14096939	      0.64246759	     -0.07925718	     -0.18748929	      0.68262181	     -0.07011557	     -0.34275298	      0.68262181	     -0.04877660	     -0.34275298	      0.56215914	     -0.03963072	     -0.28746478	      0.52200492	     -0.02438617	     -0.21836159	      0.48185069	     -0.30484417	     -1.59467395	      3.57321200	      0.00000000	      0.00000000	     17.08786708	     -3.41836559	      0.71230779	     25.23794777	     -3.65697695	     15.44022415	    128.91704214	     88.26923590	     29.18296804	     23.08632511	     67.84236316	    -18.67870033	     16.10403770	    138.11904039	     86.30202241	      8.76611872	     17.67826910
